<svg preserveAspectRatio="none" width="100%" height="100%" overflow="visible" style="display: block;" viewBox="0 0 22 22" fill="none" xmlns="http://www.w3.org/2000/svg">
<g id="Frame">
<path id="Vector" d="M1.60156 0.325492C1.81205 0.144251 2.07524 0.0354938 2.35227 0.0152766C2.6293 -0.00494064 2.90549 0.0644536 3.14006 0.213214C7.36479 2.57027 11.5607 4.97888 15.7627 7.37385C14.5914 8.57322 13.3883 9.74302 12.2185 10.9439L12.1653 10.9925C8.70679 7.37686 5.10031 3.90316 1.60156 0.325492Z" fill="var(--fill-0, #0FF07E)"/>
<path id="Vector_2" d="M1.1471 2.93588C1.15165 2.06118 1.01965 1.05982 1.60226 0.324707C5.10102 3.90235 8.70826 7.37609 12.166 10.9917C8.62582 14.5415 5.0856 18.0936 1.54537 21.648C1.2519 21.0876 1.11212 20.4593 1.14026 19.8273C1.15088 14.1968 1.14026 8.56712 1.14632 2.93663L1.1471 2.93588Z" fill="var(--fill-0, #10CFFF)"/>
<path id="Vector_3" d="M15.7611 7.37305C17.1827 8.16277 18.5892 8.97829 19.9995 9.78927C20.2693 9.90686 20.4948 10.1073 20.6431 10.3615C20.7915 10.6157 20.8552 10.9105 20.8249 11.2033C20.6792 11.8102 20.092 12.1311 19.5929 12.4171C18.3093 13.0999 17.0742 13.8782 15.7952 14.5731C14.6057 13.3593 13.3676 12.1903 12.2168 10.9439C13.3866 9.74376 14.5897 8.57319 15.7611 7.37382V7.37305Z" fill="var(--fill-0, #FFCA0A)"/>
<path id="Vector_4" d="M12.164 10.9918L12.2171 10.9432C13.3702 12.1896 14.6052 13.3594 15.7947 14.5724C11.6476 16.9601 7.49062 19.3287 3.32377 21.6784C3.06102 21.8582 2.7489 21.9518 2.43059 21.9464C2.11228 21.9409 1.80354 21.8367 1.54708 21.6481C5.07972 18.0891 8.61869 14.537 12.164 10.9918Z" fill="var(--fill-0, #FA3E4D)"/>
</g>
</svg>
