<svg preserveAspectRatio="none" width="100%" height="100%" overflow="visible" style="display: block;" viewBox="0 0 22 22" fill="none" xmlns="http://www.w3.org/2000/svg">
<g id="Frame">
<path id="Vector" d="M1.60018 0.325467C1.81067 0.144227 2.07386 0.0354694 2.35089 0.0152522C2.62792 -0.00496506 2.90411 0.0644292 3.13868 0.21319C7.36341 2.57024 11.5593 4.97885 15.7613 7.37383C14.59 8.57319 13.3869 9.74299 12.2171 10.9439L12.164 10.9924C8.70541 7.37683 5.09893 3.90313 1.60018 0.325467Z" fill="var(--fill-0, #0FF07E)"/>
<path id="Vector_2" d="M1.14798 2.93585C1.15253 2.06116 1.02053 1.05979 1.60314 0.324683C5.1019 3.90233 8.70914 7.37607 12.1669 10.9917C8.6267 14.5415 5.08648 18.0936 1.54625 21.648C1.25278 21.0875 1.113 20.4593 1.14114 19.8273C1.15176 14.1968 1.14114 8.5671 1.1472 2.9366L1.14798 2.93585Z" fill="var(--fill-0, #10CFFF)"/>
<path id="Vector_3" d="M15.7614 7.37303C17.183 8.16276 18.5895 8.97828 19.9998 9.78925C20.2696 9.90685 20.495 10.1073 20.6434 10.3615C20.7918 10.6157 20.8555 10.9105 20.8251 11.2033C20.6795 11.8102 20.0923 12.1311 19.5931 12.4171C18.3096 13.0999 17.0745 13.8782 15.7955 14.5731C14.606 13.3593 13.3679 12.1903 12.2171 10.9439C13.3869 9.74375 14.59 8.57317 15.7614 7.37381V7.37303Z" fill="var(--fill-0, #FFCA0A)"/>
<path id="Vector_4" d="M12.164 10.9918L12.2171 10.9432C13.3702 12.1896 14.6052 13.3594 15.7947 14.5724C11.6476 16.9601 7.49062 19.3287 3.32377 21.6784C3.06102 21.8582 2.7489 21.9518 2.43059 21.9464C2.11228 21.9409 1.80354 21.8367 1.54708 21.6481C5.07972 18.0891 8.61869 14.537 12.164 10.9918Z" fill="var(--fill-0, #FA3E4D)"/>
</g>
</svg>
