<svg preserveAspectRatio="none" width="100%" height="100%" overflow="visible" style="display: block;" viewBox="0 0 22 22" fill="none" xmlns="http://www.w3.org/2000/svg">
<g id="Frame" clip-path="url(#clip0_0_51)">
<path id="Union" d="M15.2872 5.28841C16.5715 5.38174 17.74 5.77008 18.6974 6.67416C18.9225 6.88677 19.1249 7.11868 19.3058 7.36947C19.3957 7.49411 19.3947 7.49561 19.2696 7.57748C18.7556 7.91377 18.2935 8.3083 17.92 8.79916C17.4217 9.45408 17.1345 10.1929 17.046 11.0111C16.9507 11.8919 17.0371 12.7509 17.3858 13.5687C17.8704 14.7051 18.7001 15.5169 19.7999 16.0619C19.9645 16.1434 19.9626 16.14 19.9044 16.3158C19.3721 17.9238 18.509 19.3425 17.4239 20.6322C17.1382 20.9716 16.8183 21.2763 16.4474 21.5238C15.805 21.9523 15.1077 22.066 14.3585 21.89C13.9883 21.8029 13.631 21.679 13.2804 21.5335C12.6178 21.2586 11.9353 21.0787 11.21 21.1195C10.6171 21.1529 10.0544 21.3138 9.5079 21.5384C9.14651 21.687 8.77908 21.8167 8.3995 21.9124C7.66896 22.0967 6.99938 21.9688 6.38681 21.5335C5.88836 21.1793 5.47074 20.7418 5.09579 20.263C4.43642 19.421 3.83402 18.5416 3.37704 17.5697C2.77073 16.2801 2.33433 14.9383 2.13095 13.5247C2.05467 12.9944 2.00908 12.4617 2.02157 11.9788C2.00648 10.9038 2.15084 9.90732 2.53622 8.95736C3.17536 7.38202 4.24619 6.23124 5.86532 5.63509C6.31436 5.46974 6.78033 5.38571 7.2579 5.35091C7.81791 5.31008 8.35126 5.42995 8.87899 5.59213C9.41581 5.75716 9.93506 5.97229 10.463 6.16244C10.9096 6.32327 11.3315 6.32617 11.7735 6.15267C12.2922 5.94907 12.82 5.7676 13.3487 5.59115C13.9765 5.38163 14.6207 5.24005 15.2872 5.28841ZM15.1378 0.00716422C15.3764 -0.0242359 15.395 -0.0143978 15.3995 0.222985C15.4009 0.297298 15.3995 0.37224 15.3995 0.446617C15.3994 1.58244 14.9971 2.57343 14.3018 3.45443C13.8663 4.00636 13.3519 4.46869 12.71 4.77377C12.189 5.02135 11.6389 5.11971 11.0645 5.09505C10.9902 5.09187 10.9522 5.06906 10.9444 4.98568C10.8924 4.42574 10.9534 3.87678 11.1427 3.34994C11.5865 2.11431 12.3736 1.16635 13.5421 0.54818C14.0448 0.282261 14.5697 0.0819536 15.1378 0.00716422Z" fill="var(--fill-0, black)"/>
</g>
<defs>
<clipPath id="clip0_0_51">
<rect width="22" height="22" fill="white"/>
</clipPath>
</defs>
</svg>
