<svg preserveAspectRatio="none" width="100%" height="100%" overflow="visible" style="display: block;" viewBox="0 0 22 22" fill="none" xmlns="http://www.w3.org/2000/svg">
<g id="Frame" clip-path="url(#clip0_0_24)">
<path id="Union" d="M15.2871 5.28809C16.5714 5.38141 17.7399 5.76975 18.6973 6.67383C18.9224 6.88645 19.1248 7.11835 19.3057 7.36914C19.3956 7.49378 19.3947 7.49529 19.2695 7.57715C18.7556 7.91344 18.2934 8.30797 17.9199 8.79883C17.4217 9.45375 17.1344 10.1925 17.0459 11.0107C16.9507 11.8916 17.037 12.7505 17.3857 13.5684C17.8703 14.7048 18.7 15.5166 19.7998 16.0615C19.9644 16.1431 19.9625 16.1397 19.9043 16.3154C19.372 17.9234 18.509 19.3421 17.4238 20.6318C17.1381 20.9713 16.8182 21.276 16.4473 21.5234C15.8049 21.952 15.1076 22.0656 14.3584 21.8896C13.9882 21.8026 13.6309 21.6787 13.2803 21.5332C12.6177 21.2583 11.9352 21.0784 11.21 21.1191C10.617 21.1525 10.0543 21.3135 9.50781 21.5381C9.14642 21.6866 8.77899 21.8163 8.39941 21.9121C7.66887 22.0964 6.99929 21.9685 6.38672 21.5332C5.88827 21.1789 5.47066 20.7415 5.0957 20.2627C4.43634 19.4207 3.83393 18.5413 3.37695 17.5693C2.77065 16.2798 2.33424 14.938 2.13086 13.5244C2.05458 12.994 2.00899 12.4613 2.02148 11.9785C2.00639 10.9034 2.15075 9.90699 2.53613 8.95703C3.17527 7.38169 4.2461 6.23091 5.86523 5.63477C6.31427 5.46941 6.78024 5.38538 7.25781 5.35059C7.81782 5.30976 8.35117 5.42962 8.87891 5.5918C9.41573 5.75683 9.93497 5.97197 10.4629 6.16211C10.9095 6.32294 11.3314 6.32584 11.7734 6.15234C12.2921 5.94874 12.8199 5.76728 13.3486 5.59082C13.9764 5.3813 14.6206 5.23972 15.2871 5.28809ZM15.1377 0.00683594C15.3763 -0.0245636 15.3939 -0.0148663 15.3984 0.222656C15.3998 0.29697 15.3994 0.371912 15.3994 0.446289C15.3992 1.58216 14.9961 2.57308 14.3008 3.4541C13.8652 4.00598 13.3518 4.46838 12.71 4.77344C12.1888 5.02115 11.638 5.11846 11.0635 5.09375C10.9893 5.09052 10.9511 5.0686 10.9434 4.98535C10.8913 4.42537 10.9533 3.87649 11.1426 3.34961C11.5864 2.11391 12.3734 1.16505 13.542 0.546875C14.0447 0.281035 14.5697 0.0815716 15.1377 0.00683594Z" fill="var(--fill-0, black)"/>
</g>
<defs>
<clipPath id="clip0_0_24">
<rect width="22" height="22" fill="white"/>
</clipPath>
</defs>
</svg>
