<svg preserveAspectRatio="none" width="100%" height="100%" overflow="visible" style="display: block;" viewBox="0 0 22 22" fill="none" xmlns="http://www.w3.org/2000/svg">
<g id="Frame">
<path id="Vector" d="M1.60059 0.325369C1.81108 0.144129 2.07426 0.0353717 2.35129 0.0151545C2.62832 -0.00506271 2.90451 0.0643315 3.13908 0.213092C7.36381 2.57014 11.5598 4.97876 15.7618 7.37373C14.5904 8.57309 13.3873 9.7429 12.2175 10.9438L12.1644 10.9923C8.70581 7.37674 5.09934 3.90303 1.60059 0.325369Z" fill="var(--fill-0, #0FF07E)"/>
<path id="Vector_2" d="M1.14807 2.93539C1.15263 2.06069 1.02063 1.05933 1.60324 0.324219C5.10199 3.90186 8.70924 7.37561 12.167 10.9912C8.6268 14.541 5.08657 18.0931 1.54635 21.6475C1.25287 21.0871 1.1131 20.4589 1.14124 19.8268C1.15185 14.1964 1.14124 8.56664 1.1473 2.93614L1.14807 2.93539Z" fill="var(--fill-0, #10CFFF)"/>
<path id="Vector_3" d="M15.7611 7.37305C17.1827 8.16277 18.5892 8.97829 19.9995 9.78927C20.2693 9.90686 20.4948 10.1073 20.6431 10.3615C20.7915 10.6157 20.8552 10.9105 20.8249 11.2033C20.6792 11.8102 20.092 12.1311 19.5929 12.4171C18.3093 13.0999 17.0742 13.8782 15.7952 14.5731C14.6057 13.3593 13.3676 12.1903 12.2168 10.9439C13.3866 9.74376 14.5897 8.57319 15.7611 7.37382V7.37305Z" fill="var(--fill-0, #FFCA0A)"/>
<path id="Vector_4" d="M12.164 10.9918L12.2171 10.9432C13.3702 12.1896 14.6052 13.3594 15.7947 14.5724C11.6476 16.9601 7.49062 19.3287 3.32377 21.6784C3.06102 21.8582 2.7489 21.9518 2.43059 21.9464C2.11228 21.9409 1.80354 21.8367 1.54708 21.6481C5.07972 18.0891 8.61869 14.537 12.164 10.9918Z" fill="var(--fill-0, #FA3E4D)"/>
</g>
</svg>
